REM DIRINDEX 1\5,1\2\6,1\2\7,1\3\8,1\3\9,1\3\10,1\3\11,1\4\12,1\4\13,1\4\14
REM DIRNAME folder01,folder02,folder03,folder04,folder05,folder06,folder07,folder08,folder09,folder10,folder11,folder12,folder13,folder14
TITLE ""
FILE "4Q_j_605-612.mp3" MP3
  TRACK 01 AUDIO
    TITLE "8:cjc042_0673"
    INDEX 01 00:00:00
  TRACK 02 AUDIO
    TITLE "0:"
    INDEX 01 00:01:05
  TRACK 03 AUDIO
    TITLE "9:cjc042_0674"
    INDEX 01 00:01:64
  TRACK 04 AUDIO
    TITLE "0:"
    INDEX 01 00:05:26
  TRACK 05 AUDIO
    TITLE "10:cjc042_0675"
    INDEX 01 00:06:04
  TRACK 06 AUDIO
    TITLE "0:"
    INDEX 01 00:09:55
  TRACK 07 AUDIO
    TITLE "11:cjc042_0676"
    INDEX 01 00:10:37
  TRACK 08 AUDIO
    TITLE "0:"
    INDEX 01 00:14:70
  TRACK 09 AUDIO
    TITLE "8:cjc042_0677"
    INDEX 01 00:15:56
  TRACK 10 AUDIO
    TITLE "0:"
    INDEX 01 00:17:14
  TRACK 11 AUDIO
    TITLE "9:cjc042_0678"
    INDEX 01 00:17:67
  TRACK 12 AUDIO
    TITLE "0:"
    INDEX 01 00:21:68
  TRACK 13 AUDIO
    TITLE "10:cjc042_0679"
    INDEX 01 00:22:40
  TRACK 14 AUDIO
    TITLE "0:"
    INDEX 01 00:26:20
  TRACK 15 AUDIO
    TITLE "11:cjc042_0680"
    INDEX 01 00:26:67
  TRACK 16 AUDIO
    TITLE "0:"
    INDEX 01 00:29:44
  TRACK 17 AUDIO
    TITLE "8:cjc042_0681"
    INDEX 01 00:30:16
  TRACK 18 AUDIO
    TITLE "0:"
    INDEX 01 00:31:43
  TRACK 19 AUDIO
    TITLE "9:cjc042_0682"
    INDEX 01 00:32:21
  TRACK 20 AUDIO
    TITLE "0:"
    INDEX 01 00:35:64
  TRACK 21 AUDIO
    TITLE "10:cjc042_0683"
    INDEX 01 00:36:38
  TRACK 22 AUDIO
    TITLE "0:"
    INDEX 01 00:39:58
  TRACK 23 AUDIO
    TITLE "11:cjc042_0684"
    INDEX 01 00:40:30
  TRACK 24 AUDIO
    TITLE "0:"
    INDEX 01 00:45:20
  TRACK 25 AUDIO
    TITLE "8:cjc042_0685"
    INDEX 01 00:46:00
  TRACK 26 AUDIO
    TITLE "0:"
    INDEX 01 00:47:48
  TRACK 27 AUDIO
    TITLE "9:cjc042_0686"
    INDEX 01 00:48:22
  TRACK 28 AUDIO
    TITLE "0:"
    INDEX 01 00:50:44
  TRACK 29 AUDIO
    TITLE "10:cjc042_0687"
    INDEX 01 00:51:22
  TRACK 30 AUDIO
    TITLE "0:"
    INDEX 01 00:55:22
  TRACK 31 AUDIO
    TITLE "11:cjc042_0688"
    INDEX 01 00:55:73
  TRACK 32 AUDIO
    TITLE "0:"
    INDEX 01 00:59:41
  TRACK 33 AUDIO
    TITLE "8:cjc042_0689"
    INDEX 01 01:00:15
  TRACK 34 AUDIO
    TITLE "0:"
    INDEX 01 01:01:56
  TRACK 35 AUDIO
    TITLE "9:cjc042_0690"
    INDEX 01 01:02:34
  TRACK 36 AUDIO
    TITLE "0:"
    INDEX 01 01:03:69
  TRACK 37 AUDIO
    TITLE "10:cjc042_0691"
    INDEX 01 01:04:47
  TRACK 38 AUDIO
    TITLE "0:"
    INDEX 01 01:07:19
  TRACK 39 AUDIO
    TITLE "11:cjc042_0692"
    INDEX 01 01:07:66
  TRACK 40 AUDIO
    TITLE "0:"
    INDEX 01 01:10:18
  TRACK 41 AUDIO
    TITLE "8:cjc042_0693"
    INDEX 01 01:10:69
  TRACK 42 AUDIO
    TITLE "0:"
    INDEX 01 01:12:32
  TRACK 43 AUDIO
    TITLE "9:cjc042_0694"
    INDEX 01 01:13:14
  TRACK 44 AUDIO
    TITLE "0:"
    INDEX 01 01:16:71
  TRACK 45 AUDIO
    TITLE "10:cjc042_0695"
    INDEX 01 01:17:47
  TRACK 46 AUDIO
    TITLE "0:"
    INDEX 01 01:21:00
  TRACK 47 AUDIO
    TITLE "11:cjc042_0696"
    INDEX 01 01:21:47
  TRACK 48 AUDIO
    TITLE "0:"
    INDEX 01 01:24:55
  TRACK 49 AUDIO
    TITLE "8:cjc042_0697"
    INDEX 01 01:25:33
  TRACK 50 AUDIO
    TITLE "0:"
    INDEX 01 01:28:63
  TRACK 51 AUDIO
    TITLE "9:cjc042_0698"
    INDEX 01 01:29:43
  TRACK 52 AUDIO
    TITLE "0:"
    INDEX 01 01:31:30
  TRACK 53 AUDIO
    TITLE "10:cjc042_0699"
    INDEX 01 01:32:06
  TRACK 54 AUDIO
    TITLE "0:"
    INDEX 01 01:36:15
  TRACK 55 AUDIO
    TITLE "11:cjc042_0700"
    INDEX 01 01:36:68
  TRACK 56 AUDIO
    TITLE "0:"
    INDEX 01 01:41:12
  TRACK 57 AUDIO
    TITLE "8:cjc042_0701"
    INDEX 01 01:41:61
  TRACK 58 AUDIO
    TITLE "0:"
    INDEX 01 01:43:17
  TRACK 59 AUDIO
    TITLE "9:cjc042_0702"
    INDEX 01 01:43:72
  TRACK 60 AUDIO
    TITLE "0:"
    INDEX 01 01:47:03
  TRACK 61 AUDIO
    TITLE "10:cjc042_0703"
    INDEX 01 01:47:58
  TRACK 62 AUDIO
    TITLE "0:"
    INDEX 01 01:51:28
  TRACK 63 AUDIO
    TITLE "11:cjc042_0704"
    INDEX 01 01:52:08
  TRACK 64 AUDIO
    TITLE "0:"
    INDEX 01 01:57:51
